<?xml version="1.0" encoding="UTF-8"?>
<svg id="Layer_1" data-name="Layer 1" xmlns="http://www.w3.org/2000/svg" viewBox="0 0 1080 1080">
  <defs>
    <style>
      .cls-1 {
        fill: #803d23;
        stroke-width: 0px;
      }
    </style>
  </defs>
  <path class="cls-1" d="M414.62,538.59c-.34,69.22,56.55,126.44,125.9,126.63,69.18.2,126.34-56.86,126.36-126.16.02-69.01-56.3-125.64-125.48-126.19-69.13-.54-126.44,56.29-126.78,125.72ZM540.55,466.94c39.21-.19,71.88,32.22,72.27,71.69.39,39.4-32.85,72.74-72.3,72.52-39.34-.22-71.88-32.88-71.85-72.12.02-39.28,32.54-71.89,71.88-72.09Z"/>
  <path class="cls-1" d="M360.6,403.99c69.17.05,125.82-56.24,126.12-125.31.31-69.76-55.75-126.34-125.46-126.64-69.82-.29-126.25,55.76-126.4,125.57-.15,69.75,56.14,126.32,125.74,126.38ZM360.51,206.1c39.76-.07,72.1,32.01,72.19,71.63.09,39.5-32.32,72.11-71.78,72.22-39.58.11-71.92-32.13-72.03-71.8-.1-39.86,31.82-71.97,71.62-72.05Z"/>
  <path class="cls-1" d="M719.84,403.98c69.81.34,126.38-55.57,126.79-125.32.41-69.85-55.47-126.3-125.34-126.62-69.3-.32-126.15,55.72-126.52,124.74-.38,69.8,55.73,126.86,125.07,127.2ZM721.01,206.1c39.8.1,71.71,32.21,71.59,72.07-.11,39.7-32.45,71.9-72.06,71.78-39.43-.12-71.85-32.77-71.74-72.25.1-39.59,32.47-71.68,72.21-71.6Z"/>
  <path class="cls-1" d="M560.49,693.03c-103.49-10.13-198.87,59.08-221.6,160.87-3.22,14.44-4.43,29.48-5.04,44.3-.65,15.81,11.6,27.71,26.61,27.81,14.9.1,26.14-10.91,27.09-26.52.29-4.77.56-9.54.98-14.3,5.37-61.54,48.1-113.99,107.85-132.42,59.06-18.22,124.22,1.86,163.22,50.26,22.72,28.2,33.51,60.57,34.46,96.6.4,15.2,11.83,26.18,26.28,26.39,14.77.21,26.53-10.97,27.48-26.28.23-3.64.03-7.3.03-10.96-5.18-100.23-82.95-185.53-187.36-195.75Z"/>
  <path class="cls-1" d="M387.49,457.16c-.38-15.5-12.76-26.58-30.09-25.97-10.92.38-21.9,1.41-32.68,3.16-94.07,15.29-167.96,99.69-171.9,194.89,1.32,7.07,1.48,14.64,4.22,21.11,4.64,10.95,17.39,16.46,28.77,14.07,12.69-2.66,20.66-12.53,22.05-26.39,1.29-12.83,1.8-25.94,4.99-38.33,17.26-66.91,76.32-113.12,145.4-114.65,17.69-.39,29.64-11.79,29.24-27.9Z"/>
  <path class="cls-1" d="M927.55,632.22c-2.37-96.4-73.8-180.14-167.49-197.4-12.11-2.23-24.54-3.17-36.86-3.64-16.56-.63-28.84,10.81-29.19,26.02-.37,15.86,11.41,27.39,28.44,27.83,73.48,1.94,133.22,51.27,148.21,122.88,2.06,9.83,2.2,20.08,3.03,30.15,1.81,22,23.61,34.06,41.37,22.72,11.12-7.1,13.81-17.81,12.49-28.57Z"/>
</svg>