<?xml version="1.0" encoding="UTF-8"?>
<svg id="Layer_1" data-name="Layer 1" xmlns="http://www.w3.org/2000/svg" viewBox="0 0 1080 1080">
  <defs>
    <style>
      .cls-1 {
        fill: #803d23;
        stroke-width: 0px;
      }
    </style>
  </defs>
  <path class="cls-1" d="M849.42,329.53c-.04-39.53-30.38-74.26-69.06-79.07-13.44-1.67-27.19-1.62-40.5-1.57-5.5.02-11.19.04-16.75-.06-5.69-.1-11.3-.08-17.25-.05-1.43,0-2.88.01-4.34.02,0-1.77,0-3.52.01-5.24.02-6.78.04-13.18-.05-19.64-.16-10.89-4.84-16.97-15.19-19.71-4.62-1.23-9.54-1.44-13.74-1.48-5.87-.06-11.82-.05-17.58-.04-9.16.01-18.63.03-27.91-.23-.97-.03-3.18-1.41-3.59-2.23-15.64-34.91-44.1-52.77-84.6-53.09-.33,0-.65,0-.98,0-38.34,0-66.2,17.85-82.8,53.08-1.04,2.22-1.65,2.54-4.49,2.53l-3.79-.03c-14.72-.11-29.95-.23-44.95.15-16.36.41-23.35,7.63-23.38,24.16-.01,5.83,0,11.67,0,17.63v4.19c-6.27,0-12.46-.04-18.59-.06-16.46-.07-32-.14-47.81.14-45.72.83-81.54,37.24-81.56,82.9-.03,82.18-.02,164.36-.02,246.54,0,92.26,0,184.51-.03,276.77-.01,32.4,15.61,55.97,46.43,70.06,5.25,2.4,10.82,3.95,16.2,5.44,2.37.66,4.83,1.34,7.17,2.08l.58.18h478.25l.53-.15c.63-.18,1.27-.38,1.9-.57,1.21-.38,2.36-.73,3.46-.94,37.91-7.22,64.4-37.26,64.43-73.05.16-180.96.17-358.81,0-528.63ZM275.32,778.07v-442.01c0-27.15,14.96-42.12,42.13-42.16,2.24,0,4.47,0,6.72,0,14,0,28.12.06,41.84.11l12.46.05v9.17c0,9.28-.01,18.56,0,27.84.04,18.82,8.78,27.59,27.49,27.6,93.96.02,181.41.02,267.33,0,19.23,0,28.2-9.13,28.21-28.72,0-9.07,0-18.15,0-27.48v-8.58s17.33,0,17.33,0c4.8-.02,9.56-.02,14.34-.03,10.47-.04,21.3-.07,31.93.08,24.01.33,39.53,16.12,39.54,40.22.01,173.16.01,346.32,0,519.48,0,18.4-10.03,30.21-28.25,33.26-3.84.64-7.94.97-12.18.97-104.57.04-209.14.04-313.71.04h-135.14c-11.27,0-19.95-2.32-27.3-7.31-8.3-5.63-12.47-13.12-12.74-22.9-.04-1.4-.03-2.79-.03-4.26v-1.7s0-73.67,0-73.67ZM424.32,313.27v-65.63h31.26c3.26,0,6.53,0,9.8,0,15.01-.05,22.79-5.96,26.84-20.41,5.98-21.31,22.95-36.06,43.23-37.56,22.19-1.64,42.86,13.39,49.15,35.76,4.73,16.81,11.84,22.2,29.27,22.21,10.47,0,20.94,0,31.64,0h10.47s0,65.63,0,65.63h-231.65Z"/>
  <path class="cls-1" d="M519.09,497.3c2.86.36,5.69.36,8.42.36h.41c34.04,0,64.69.01,93.07.01,39.09,0,73.88,0,107.26-.02,3.06,0,6.86,0,10.54-.68,6.11-1.13,11.5-4.8,14.79-10.09,3.31-5.32,4.23-11.82,2.52-17.84-2.92-10.29-11.99-16.45-24.27-16.47-24.83-.04-50.08-.03-74.49-.03h-29.47s-20.17,0-20.17,0c-22.62,0-45.23,0-67.85,0-1.82,0-3.65-.03-5.48-.05-4.75-.07-9.67-.13-14.56.26-11.81.96-20.48,10.22-20.62,22.03-.14,11.94,7.86,20.98,19.91,22.51Z"/>
  <path class="cls-1" d="M741.86,750.43c-4.41-1.37-9.17-1.54-12.37-1.55-26.05-.08-52.53-.07-78.15-.06h-22.79s-22.15,0-22.15,0c-26.07,0-53.03,0-79.54.04-3.45,0-7.13.08-10.69.94-10.58,2.54-17.25,11.29-16.98,22.3.26,10.79,7.6,19.34,18.27,21.27,3.5.64,7.06.72,9.77.72,34,.02,66.37.03,97.48.03,36.32,0,70.91-.01,104.37-.04,4.23,0,7.61-.31,10.64-.97,9.75-2.13,16.61-10.38,17.07-20.51.46-10.33-5.53-19.23-14.92-22.15Z"/>
  <path class="cls-1" d="M732.18,600.91c-24.49-.07-49.39-.06-73.47-.05-10.16,0-20.33,0-30.49,0-10.37,0-20.74,0-31.11,0-7.21,0-14.42,0-21.62-.02-17.29-.02-35.17-.05-52.77.09-7.32.06-13.45,2.46-17.73,6.95-4.04,4.23-6.03,9.92-5.77,16.45.53,13.2,10.23,21.4,25.34,21.4,53.23.03,106.46.02,159.7.02h39.11c1.11-.03,2.18,0,3.27.02,1.09.01,2.2.03,3.32.03,1.92,0,3.88-.04,5.84-.18,6.57-.48,12.36-3.48,16.3-8.47,3.93-4.96,5.53-11.24,4.5-17.68-1.83-11.43-11.18-18.54-24.4-18.58Z"/>
  <path class="cls-1" d="M367.93,662.3c4.48,4.45,9.83,6.69,15.3,6.69,5,0,10.09-1.88,14.69-5.64,2.69-2.2,5.17-4.62,7.57-6.95.88-.85,1.75-1.7,2.63-2.54,5.4-5.12,10.8-10.24,16.2-15.35,15.26-14.46,31.04-29.42,46.47-44.23,8.22-7.89,9.91-17.41,4.75-26.78-5.18-9.42-15.46-14.13-25.01-11.45-4.5,1.26-9.35,4.18-13.68,8.21-13.95,13.02-27.76,26.24-41.12,39.02-3.6,3.45-7.18,6.87-10.72,10.25-1.88-1.71-3.73-3.4-5.56-5.06-6.08-5.54-11.83-10.77-17.53-16.11-10.01-9.39-23.17-10.03-32-1.56-9.02,8.66-9.12,22.85-.23,32.32,11.74,12.5,24.24,25.32,38.22,39.18Z"/>
  <path class="cls-1" d="M367.85,514.01c4.7,4.68,10.23,7.03,15.72,7.03,5.03,0,10.03-1.98,14.32-5.97,27.22-25.3,51.36-48.19,73.8-69.97,5.05-4.9,7.46-11.5,6.59-18.09-.92-7.05-5.33-13.26-12.09-17.03-6.58-3.68-16.8-5.82-28.08,4.86-13.44,12.73-27.08,25.73-40.27,38.29-4.68,4.46-9.37,8.93-14.07,13.4-2.03-2.08-4.06-4.17-6.1-6.25-4.89-5.02-9.94-10.21-14.97-15.26-9.93-9.96-23.64-11.01-32.62-2.5-4.27,4.05-6.7,9.48-6.85,15.3-.17,6.5,2.47,12.94,7.43,18.16,11.78,12.38,24.29,25.17,37.19,38.03Z"/>
  <path class="cls-1" d="M468.97,708.16c-9.61-7.32-21.01-6.33-30.5,2.65-13.67,12.92-27.38,26-40.63,38.64-4.38,4.17-8.73,8.32-13.04,12.43-1.77-1.64-3.52-3.24-5.24-4.83-5.76-5.29-11.2-10.29-16.53-15.44-10.61-10.25-24.26-11.3-33.19-2.54-9.11,8.93-8.69,23.32.99,33.45,11.01,11.53,22.99,23.79,36.65,37.47,4.9,4.92,10.54,7.39,16.13,7.39,5.07,0,10.09-2.04,14.49-6.13,27.06-25.19,51.19-48.08,73.77-69.99,4.64-4.5,7-10.29,6.64-16.3-.38-6.36-3.85-12.49-9.52-16.8Z"/>
</svg>