<?xml version="1.0" encoding="UTF-8"?>
<svg id="Layer_1" data-name="Layer 1" xmlns="http://www.w3.org/2000/svg" viewBox="0 0 1080 1080">
  <defs>
    <style>
      .cls-1 {
        fill: #803d23;
        stroke-width: 0px;
      }
    </style>
  </defs>
  <path class="cls-1" d="M468.48,290.28c-157.39,51.95-205.97,248.6-91.42,368.32,25.29,26.43,37.29,57.05,37.29,92.96,0,15.95,1.78,32.44,12.93,43.6,13.81,13.83,12.07,29.63,12.11,45.93.01,4.44-.11,8.88.04,13.31.85,25.02,10.05,46.39,31.09,60.34,10.5,6.98,23.56,10.11,35.46,14.98h66.59c1.01-.41,1.98-1.01,3.02-1.21,30.61-5.62,51.63-23,59.81-52.95,3.71-13.59,3.25-28.47,3.58-42.79.3-12.73-1.32-25.62,10.99-34.36.62-.44.83-1.42,1.29-2.11,9.24-13.49,12.94-28.48,12.94-44.74-.02-34.38,11.05-64.48,34.62-90.01,10.12-10.97,20.17-22.33,28.23-34.81,51.86-80.36,49.18-179.4-7.35-256.49-57.79-78.82-158.25-110.65-251.22-79.97ZM589.06,855.89c-.69,13.36-10.71,23.41-24.17,23.73-17.15.42-34.33.43-51.48-.02-13.07-.34-23.08-10.21-23.87-23.12-.52-8.5-.1-17.06-.1-26.11h99.7c0,8.97.34,17.27-.08,25.52ZM670.85,617.92c-19.88,22.77-39.53,45.5-47.22,75.25-4.88,18.87-7.46,38.52-9.14,57.99-1.63,18.98-10.06,28.67-28.96,28.74-15.53.06-31.06.01-46.6.01s-31.06.07-46.6-.01c-17.92-.11-27.85-9.89-27.94-27.78-.2-40.53-10.39-77.87-35.64-110.17-10.23-13.08-22.48-24.65-32.06-38.15-29.29-41.29-37.86-87.34-28.18-136.76,17.93-91.53,107.78-152.58,200.02-135.14,73.21,13.83,120.84,57.76,139.82,129.31,15.34,57.84,2.09,111.33-37.5,156.71Z"/>
  <path class="cls-1" d="M238.83,478.74c-30.74-.3-61.51.45-92.24-.33-15.46-.39-26.86,4.15-33.5,18.54v13.32c5.25,9.91,11.96,18.14,24.35,18.2,34.35.15,68.7.25,103.04-.08,10.64-.1,18.33-5.95,22.28-15.88,6.54-16.47-5.42-33.58-23.94-33.76Z"/>
  <path class="cls-1" d="M514.31,199.62c.04,17.76,9.7,29.15,24.76,29.28,15.07.13,25.14-11.34,25.17-28.87.05-31.34.05-62.68,0-94.02-.03-17.04-9.93-28.32-24.75-28.45-15.07-.13-25.12,11.34-25.17,28.87-.05,15.53,0,31.06-.01,46.6,0,15.53-.03,31.06,0,46.6Z"/>
  <path class="cls-1" d="M937.75,478.67c-31.9-.09-63.8-.08-95.7,0-16.82.04-28.16,10.33-28.03,25.17.14,14.81,11.42,24.67,28.47,24.73,15.53.06,31.07.01,46.6.01,16.09,0,32.18.06,48.27-.02,16.82-.08,28.16-10.33,28.03-25.17-.13-14.52-11.33-24.67-27.64-24.72Z"/>
  <path class="cls-1" d="M349.95,301.98c4.7-10.52,2.54-20.2-5.44-28.26-23.02-23.26-46.08-46.5-69.42-69.44-10.93-10.74-25.66-10.74-35.78-.86-10.28,10.04-10.21,25.15.86,36.37,22.79,23.11,45.66,46.14,69.01,68.67,4.67,4.51,11.62,6.64,15.08,8.54,13.54-1,21.45-5.51,25.69-15.02Z"/>
  <path class="cls-1" d="M846.07,218.16c.15-9.86-6.47-16.93-15.83-20.37-10.14-3.73-19.21-1.02-26.73,6.38-14.05,13.8-27.9,27.8-41.82,41.73-9.6,9.62-19.38,19.07-28.67,28.98-7.3,7.79-8.85,17.16-4.49,26.98,4.23,9.51,12.08,14.08,25.53,15.12,3.3-1.72,10.13-3.58,14.59-7.89,23.93-23.12,47.65-46.51,70.51-70.68,4.52-4.78,6.79-13.37,6.9-20.26Z"/>
  <path class="cls-1" d="M534.48,378.95c-54.41,2.31-99.01,36.49-114.82,88.02-4.59,14.96,1.6,28.59,15.06,33.16,13.68,4.65,27.09-2.21,32.05-17.08,11.63-34.85,35.73-52.77,72.28-54.37,11.35-.5,19.56-5.85,23.55-16.62,6.62-17.89-7.17-34-28.12-33.11Z"/>
</svg>