<?xml version="1.0" encoding="UTF-8"?>
<svg id="Layer_1" data-name="Layer 1" xmlns="http://www.w3.org/2000/svg" viewBox="0 0 1080 1080">
  <defs>
    <style>
      .cls-1 {
        fill: #803d23;
        stroke-width: 0px;
      }
    </style>
  </defs>
  <path class="cls-1" d="M811.38,754.28c-17.53-30.35-35.65-61.73-53.58-92.53-1.84-3.17-2.07-5.52-.9-9.32,3.7-12.05,11.79-20.86,27.05-29.46,30.32-17.08,43.07-43.4,36.88-76.11-3.49-18.41-.28-33.56,10.41-49.12,20.9-30.43,20.92-55.26.08-85.7-10.13-14.8-13.42-30.01-10.65-49.3,5.16-36.02-3.87-55.97-33.33-73.58-18.41-11.01-28.95-24.49-34.17-43.72-8.55-31.41-30.76-48.78-64.23-50.23-18.1-.78-31.9-7.59-43.43-21.44-21.96-26.38-50.3-32.97-81.94-19.06-16.49,7.25-31.89,7.26-48.47.02-32.14-14.02-59.9-7.44-82.52,19.56-11.09,13.24-24.23,19.86-41.34,20.83-18.52,1.05-32.84,5.83-43.77,14.61-10.98,8.82-18.62,21.71-23.36,39.41-4.63,17.27-13.98,29.24-29.43,37.67-30.7,16.77-42.98,43.14-36.49,78.39,3.12,16.93.07,31.15-9.58,44.74-22.01,30.97-22,58.67.04,89.81,9.63,13.6,12.66,27.83,9.55,44.75-6.43,34.89,5.43,60.59,36.27,78.58.7.41,1.41.82,2.13,1.23,5.43,3.14,11.06,6.37,14.52,10.69,5.23,6.5,9.23,14.3,11.26,21.94.43,1.61-2.4,6.19-3.92,8.65-.61.99-1.2,1.96-1.73,2.87-25.56,44.51-51.68,89.69-76.94,133.38l-1.94,3.35c-8.31,14.38-8.13,28.72.53,41.46,8.83,13,22.05,18.55,38.23,16.05,5.6-.86,11.31-1.69,16.84-2.49,10.89-1.58,22.14-3.22,33.19-5.2,3.81-.68,4.4-.32,5.77,3.45,5.1,14.01,11.02,29.23,18.64,47.91,7.08,17.35,22.29,26.32,40.65,23.99,12.28-1.56,21.83-8.54,29.18-21.35,28.54-49.68,57.09-99.11,84.88-146.93,1.43-2.46,3.72-4.73,5.82-5.77,18.24-8.99,35.23-9.57,51.95-1.74,5.26,2.45,8.04,4.81,10.26,8.69,27.05,47.16,55.2,95.93,83.68,144.93,2.33,4.02,6.01,9.83,10.97,14.02,6.83,5.75,15.14,8.77,23.67,8.77,2.89,0,5.8-.34,8.69-1.05,12.02-2.93,21.76-11.49,26.71-23.48,5.15-12.47,10.1-25.29,14.88-37.7,1.8-4.66,3.61-9.34,5.43-14.04,1.52.15,2.85.29,4.18.49,5.81.86,11.62,1.75,17.42,2.64,11.44,1.75,23.27,3.56,34.95,5.14,18.57,2.51,35.82-9,40.99-27.37,2.91-10.34,1.22-20.43-5.33-31.75-9.57-16.52-19.11-33.05-28.65-49.58ZM391.84,714.78c15.76.35,28.18,6.44,40.26,19.74,5.94,6.54,12.89,11.92,20.25,17.6,2.44,1.89,4.94,3.83,7.45,5.84l-72.67,125.91c-.43-1.08-.86-2.16-1.28-3.22-2.98-7.48-5.79-14.53-8.57-21.6-1.7-4.34-3.39-8.68-5.07-13.03-2.54-6.58-5.17-13.38-7.85-20.05-4.14-10.29-10.54-15.1-20.39-15.1-1.75,0-3.61.15-5.59.45-8.76,1.33-17.53,2.67-26.29,4.02-11.66,1.78-23.31,3.57-34.97,5.33l69.9-121.08c13.27,9.83,27.98,14.81,44.82,15.19ZM392.06,672.92c-14.71-.34-23.89-7.71-27.29-21.9-6.88-28.79-23.42-50.15-50.56-65.32-14.99-8.37-18.41-12.74-14.88-33.28,5.02-29.21-.49-54.41-16.85-77.04-11.4-15.76-11.36-24.7.17-41.57,9.16-13.41,19.62-31.71,19.14-54.38l-.03-.42c-.29-2.26-.54-4.53-.79-6.8-.56-5.02-1.13-10.2-2.06-15.31-2.83-15.63,1.97-26.39,14.68-32.9,26.87-13.75,43.69-35.21,51.39-65.62,3.93-15.48,11.53-21.19,29.04-21.85,27.9-1.04,50.51-11.77,67.18-31.89l.11-.12c.76-.92,1.48-1.79,2.23-2.53,9.09-8.88,13.77-12.89,20.28-12.89,4.22,0,9.2,1.67,16.63,4.78,26.11,10.91,51.63,10.88,78-.1,18.31-7.62,22.27-7.67,36.36,8.44,19.42,22.2,42.87,33.47,71.68,34.47,15.95.55,23.33,6.5,27.23,21.97,7.63,30.24,24.49,51.67,51.55,65.52,12.67,6.48,17.52,17.28,14.4,32.1-6.07,28.94-.55,54.65,16.87,78.6,11,15.11,10.97,24.85-.12,40.09-16.61,22.81-22.19,48.24-17.09,77.75,3.28,18.98.87,24.25-15.16,33.17-26.48,14.73-42.93,35.84-50.31,64.55-.27,1.03-.54,2.02-.82,2.96-.57,1.89-1.18,3.6-1.85,5.16-.68,1.56-1.41,2.96-2.22,4.21h0c-.41.64-.84,1.23-1.28,1.78-.45.56-.92,1.09-1.41,1.58-4.45,4.42-10.86,6.24-20.91,6.75-29.32,1.49-52.43,12.92-70.65,34.96-11.52,13.93-18.88,15.64-35.76,8.29-26.99-11.74-53.01-11.66-79.57.21-15.95,7.14-24.16,5.24-35.14-8.12-18.96-23.08-42.58-34.63-72.19-35.3ZM627.85,750.77c8.23-7.15,16-13.91,23.38-21.18,9.42-9.29,19.22-13.83,30.83-14.3,20.41-.83,36.31-5.82,49.58-15.63l69.72,120.75-6.51-.96c-11.78-1.74-23.01-3.4-34.25-5.06-2.81-.42-5.63-.85-8.45-1.27-3.69-.57-7.37-1.12-11.06-1.66-14.7-2.15-21.86,2.02-27.36,15.93-4.45,11.27-8.87,22.55-13.29,33.84-2.76,7.07-5.53,14.15-8.31,21.22-.2.49-.39.98-.59,1.47l-72.47-125.48c2.98-2.63,5.92-5.18,8.78-7.67Z"/>
  <path class="cls-1" d="M538.85,661.26c55.39-.09,107.38-21.68,146.4-60.79,39.02-39.1,60.47-91.11,60.4-146.45-.14-113.17-92.52-205.3-205.94-205.37h-.13c-55.42,0-107.39,21.47-146.33,60.44-38.96,39.01-60.38,91.03-60.29,146.49.08,54.66,21.65,106.26,60.72,145.29,39,38.95,90.41,60.39,144.81,60.39h.36ZM423.83,571.93c-31.41-30.92-48.89-71.91-49.21-115.41-.66-90.97,72.62-165.54,163.35-166.23h1.29c43.6,0,84.71,16.93,115.9,47.75,31.33,30.98,48.69,72.11,48.87,115.83.18,45.34-18.23,86.59-48.1,116.55-29.71,29.83-70.76,48.48-116.11,48.85-.46.01-.92.01-1.38.01-42.91,0-83.56-16.78-114.61-47.35Z"/>
  <path class="cls-1" d="M557.31,515.84c19.99-29.65,41.61-62.07,66.11-99.12,3.51-5.31,4.81-11.31,3.66-16.9-1.09-5.25-4.28-9.84-9-12.92-9.97-6.52-21.77-3.76-29.39,6.85-1.07,1.49-2.06,3.01-3.01,4.48-.48.74-.96,1.47-1.44,2.2l-48.32,72.43c-2.49-2.53-4.94-5.02-7.37-7.49-8.21-8.36-15.97-16.25-23.95-24.09-9.36-9.19-21.5-9.61-30.22-1.07-3.98,3.9-6.19,8.99-6.24,14.32-.05,5.74,2.4,11.41,6.89,15.98,17.11,17.37,33.01,33.27,48.62,48.6,4.8,4.72,10.41,7.25,15.98,7.25.61,0,1.22-.03,1.83-.1,6.1-.61,11.73-4.31,15.85-10.42Z"/>
</svg>