<?xml version="1.0" encoding="UTF-8"?>
<svg id="Layer_2" data-name="Layer 2" xmlns="http://www.w3.org/2000/svg" viewBox="0 0 880.8 736.18">
  <defs>
    <style>
      .cls-1 {
        fill: #f4e9df;
        stroke-width: 0px;
      }

      .cls-2 {
        opacity: .6;
      }
    </style>
  </defs>
  <g id="Layer_1-2" data-name="Layer 1">
    <g>
      <g>
        <g>
          <path class="cls-1" d="M108.88,478.94c3.95-6.73,6.97-9.98,6.97-22.75,0-27.4-25.54-31.11-39.7-31.11H0v120.25h76.15c33.2,0,45.73-16.48,45.73-37.37,0-16.72-8.12-23.91-13-29.02ZM20.43,445.51h55.72c11.61,0,19.27,2.55,19.27,13,0,9.52-8.36,12.77-19.27,12.77H20.43v-25.77ZM76.15,524.91H20.43v-33.2h56.65c15.32,0,24.37,1.86,24.37,17.64,0,12.07-9.52,15.56-25.3,15.56Z"/>
          <path class="cls-1" d="M170.41,425.08v120.25h20.43v-120.25h-20.43Z"/>
          <path class="cls-1" d="M302.97,473.14c-34.59,0-38.77-3.72-38.77-15.33,0-10.21,11.37-16.01,33.66-16.01,26.47,0,39.7,8.35,49.68,13.92l9.52-18.34c-8.13-4.17-30.18-16.01-59.43-16.01-40.4,0-55.49,18.57-55.49,38.76,0,25.08,19.04,32.97,46.43,33.44,45.04,1.16,52.93,1.62,52.93,16.94,0,13.47-15.09,18.11-36.68,18.11-33.89,0-47.36-9.52-61.28-17.88l-9.75,17.88c7.89,5.57,29.48,20.43,70.57,20.43,26.93,0,59.2-6.04,59.2-40.63,0-18.8-6.27-35.28-60.59-35.28Z"/>
          <path class="cls-1" d="M503.78,425.08v68.02c0,21.82-4.18,35.52-37.61,35.52s-37.61-13.7-37.61-35.52v-68.02h-20.42v68.02c0,30.41,10.67,55.95,58.03,55.95s58.04-25.54,58.04-55.95v-68.02h-20.43Z"/>
          <path class="cls-1" d="M567.39,425.08v20.43h46.43v99.82h20.44v-99.82h45.96v-20.43h-112.83Z"/>
          <path class="cls-1" d="M703.67,425.08v20.43h46.43v99.82h20.43v-99.82h45.97v-20.43h-112.83Z"/>
          <path class="cls-1" d="M860.38,425.08v120.25h20.42v-120.25h-20.42Z"/>
        </g>
        <g>
          <path class="cls-1" d="M208.72,692.19c-2.36,1.21-4.4,1.81-6.12,1.81-.51,0-.83-.09-.95-.28.12-.64.24-1.25.33-1.82.1-.57.14-1.11.14-1.62,0-3.44-1.62-5.16-4.87-5.16-3.44,0-7.96,3.47-13.57,10.41-5.54,6.88-8.31,12.23-8.31,16.06,0,1.4.45,2.85,1.34,4.34.89,1.5,2.13,2.25,3.72,2.25h1.53c3.57,0,7.87-3.09,12.9-9.27,4.91-5.92,7.01-9.94,6.31-12.04,4.97-2.04,7.48-3.6,7.55-4.68ZM192.66,707.76c-4.26,5.04-7.77,7.55-10.51,7.55-1.46,0-2.23-.99-2.29-2.96-.13-2.74,1.82-6.66,5.83-11.75,4.08-5.23,7.2-7.84,9.36-7.84,1.53,2.36,2.81,3.82,3.83,4.4,0,2.16-2.07,5.7-6.22,10.6Z"/>
          <path class="cls-1" d="M235.95,687.7c0-2.42-.69-4.24-2.05-5.45-1.37-1.21-2.98-1.82-4.83-1.82-.7,0-1.05.29-1.05.86,0,.38.22.67.67.86,1.59.7,2.69,1.58,3.3,2.63.6,1.05.91,2.21.91,3.49,0,2.17-.88,4.6-2.63,7.31-1.75,2.71-4.6,5.72-8.55,9.03-6.56,5.41-11.24,8.57-14.05,9.46-.19-1.4,1.27-5.7,4.39-12.9,3.19-7.45,4.78-11.21,4.78-11.28-.06-.83-.42-1.54-1.05-2.15-.64-.61-1.31-.91-2.01-.91-.45,0-.8.13-1.05.38-.51.45-1.31,1.82-2.39,4.11-1.08,2.29-2.42,5.54-4.01,9.75-1.59,4.14-2.76,7.41-3.49,9.79-.73,2.39-1.07,3.84-1,4.35.06.38.38.81.96,1.29s1.21.89,1.91,1.24c.7.35,1.24.53,1.63.53,2.23-.7,4.76-2.04,7.6-4.01,2.83-1.97,6-4.52,9.51-7.65,4.01-3.63,7.1-7.05,9.27-10.27,2.17-3.22,3.25-6.1,3.25-8.65Z"/>
          <path class="cls-1" d="M253.06,685.12c.76,0,1.56-.3,2.39-.91s1.24-1.29,1.24-2.05c0-.89-.45-1.64-1.34-2.25-.89-.61-1.78-.91-2.68-.91-2.42,0-3.63.89-3.63,2.67,0,.89.4,1.69,1.19,2.39.8.7,1.74,1.05,2.82,1.05Z"/>
          <path class="cls-1" d="M330.55,692.19c-2.36,1.21-4.39,1.81-6.11,1.81-.52,0-.83-.09-.96-.28.13-.64.24-1.25.33-1.82.1-.57.15-1.11.15-1.62,0-3.44-1.63-5.16-4.88-5.16-3.44,0-7.96,3.47-13.56,10.41-2.22,2.75-3.97,5.24-5.3,7.5-4.06,4.63-7.61,7.96-10.66,9.99-3.06,2.04-5.64,3.06-7.74,3.06-1.34,0-2.26-.45-2.77-1.34-.51-.89-.77-1.94-.77-3.15,0-.96.11-1.9.34-2.82.22-.93.46-1.71.71-2.34.83-2.04,2.2-4.53,4.11-7.46,1.91-2.93,4.43-6.37,7.55-10.32,1.85-2.36,3.73-4.7,5.64-7.02,1.91-2.33,3.82-4.67,5.73-7.02.32-.51.48-.93.48-1.25,0-.51-.35-.92-1.05-1.24-.7-.32-1.37-.48-2.01-.48-2.8,0-7.77,5.8-14.9,17.39-.32-1.14-.61-1.88-.86-2.19-.64-.96-1.88-1.44-3.73-1.44-5.42,0-11.5,3.38-18.25,10.13-1.72,1.66-3.33,3.44-4.83,5.35-.46.6-.89,1.2-1.29,1.81-.38.33-.78.75-1.24,1.35-1.02,1.27-2.34,2.67-3.97,4.2-1.62,1.53-3.33,2.96-5.11,4.3-1.78,1.34-3.49,2.44-5.11,3.3-1.63.86-2.95,1.29-3.97,1.29-1.59,0-2.38-1.02-2.38-3.06,0-2.61,2.38-7.01,7.16-13.19l7.26-9.36c0-.57-.41-1.1-1.24-1.58s-1.53-.71-2.1-.71c-2.29.06-5.23,2.99-8.79,8.79-.89,1.4-1.8,2.99-2.73,4.77-.92,1.79-1.68,3.56-2.29,5.31-.6,1.75-.91,3.29-.91,4.63,0,2.36.47,4,1.39,4.92.92.93,2.08,1.39,3.49,1.39,2.54,0,4.9-.62,7.07-1.87,2.16-1.24,4.17-2.75,6.02-4.53,1.76-1.71,3.37-3.29,4.85-4.76-.56,1.72-.76,3.44-.55,5.14.19,1.53.96,2.82,2.29,3.87,1.34,1.05,2.97,1.58,4.88,1.58,1.01,0,2.24-.39,3.67-1.15,1.44-.77,3.02-2.01,4.74-3.73l7.74-7.74c-.71,1.59-1.06,3.35-1.06,5.26s.45,3.5,1.34,4.97c.89,1.46,2.42,2.19,4.59,2.19s4.5-.74,7.02-2.24,4.99-3.39,7.41-5.69c.9-.85,1.73-1.71,2.57-2.57-.48,1.4-.76,2.68-.76,3.82,0,1.4.45,2.85,1.34,4.34.89,1.5,2.13,2.25,3.73,2.25h1.53c3.56,0,7.86-3.09,12.9-9.27,4.9-5.92,7-9.94,6.3-12.04,4.97-2.04,7.49-3.6,7.55-4.68ZM276.09,700.83c-1.92,2.46-3.03,3.88-3.35,4.26-6.37,7.51-10.93,11.27-13.66,11.27-1.6,0-2.39-1.14-2.39-3.44,0-3.95,3.12-8.82,9.36-14.62,6.63-6.24,11.91-9.36,15.86-9.36,1.09,0,1.85.38,2.3,1.15-3.51,4.71-6.21,8.29-8.12,10.74ZM314.5,707.76c-4.27,5.04-7.78,7.55-10.51,7.55-1.47,0-2.23-.99-2.3-2.96-.13-2.74,1.82-6.66,5.83-11.75,4.08-5.23,7.2-7.84,9.37-7.84,1.53,2.36,2.8,3.82,3.82,4.4,0,2.16-2.07,5.7-6.21,10.6Z"/>
          <path class="cls-1" d="M363.71,700.79c-.26,0-.51.13-.77.38-.25.25-.44.45-.57.57-3,3.63-5.8,6.25-8.41,7.84-2.61,1.59-5.25,2.42-7.93,2.48.32-1.08.73-2.83,1.24-5.25.51-2.42,1.12-5.51,1.82-9.27.95-5.1,2-8.63,3.15-10.61.06-.06.24-.3.53-.72.28-.41.75-1,1.38-1.76.83-1.02,1.24-1.91,1.24-2.68,0-1.53-1.01-2.29-3.05-2.29-.45,0-1.17.41-2.15,1.24-.99.83-2.31,2.04-3.97,3.63l-12.04,11.28c-3.88,3.57-7.45,7.32-10.7,11.27-.32.32-.48.67-.48,1.05,0,.51.16.77.48.77.44,0,1.24-.57,2.39-1.72.89,3.5,2.05,6.24,3.48,8.22,1.44,1.97,3.65,2.96,6.65,2.96,1.27,0,2.48-.13,3.63-.38,1.14-.26,2.13-.67,2.96-1.25l3.06-2c2.61-.58,4.87-1.29,6.78-2.15,1.91-.86,3.73-2.04,5.45-3.54,1.72-1.49,3.57-3.42,5.54-5.78.19-.25.38-.54.57-.86.2-.32.29-.64.29-.95s-.19-.48-.57-.48ZM344.79,702.51c-.64,2.61-1.29,4.79-1.96,6.54-.67,1.76-1.35,2.82-2.06,3.2-.95.71-2.16,1.06-3.63,1.06-2.16,0-3.99-.77-5.49-2.3-1.5-1.53-2.12-3.57-1.86-6.11.06-.51.41-1.29,1.05-2.35.63-1.05,2.04-2.69,4.2-4.92,2.17-2.23,4.36-4.36,6.59-6.4,2.23-2.04,4.08-3.6,5.55-4.68l-.39,3.25c-.25,1.97-.52,4.03-.81,6.16-.29,2.14-.68,4.32-1.19,6.55Z"/>
          <path class="cls-1" d="M411.63,690.99c-1.75-1.37-3.93-1.99-6.55-1.86-.57.06-1.45.22-2.62.48-1.18.25-2.33.59-3.44,1-1.12.42-1.9.85-2.35,1.29,0-2.36-.54-3.53-1.62-3.53-.19,0-.38.01-.57.04-.19.04-.42.08-.67.15-2.68.82-7.46,6.37-14.34,16.62-7.19,10.64-10.79,18.16-10.79,22.55,0,4.08,1.33,6.85,4.01,8.32.32.19.65.17,1-.05.35-.22.53-.49.53-.81-.06-.07-.1-.13-.1-.19-.38-.64-.78-1.33-1.19-2.06-.41-.73-.62-1.64-.62-2.72s.24-2.42.71-4.01c.48-1.6,1.09-3.21,1.82-4.83.73-1.63,1.51-3.12,2.34-4.49.83-1.37,1.59-2.34,2.29-2.92,1.6,1.92,3.16,3.09,4.69,3.54,1.08.32,3.05.48,5.92.48,4.33,0,9.3-2.2,14.91-6.6,6.18-4.84,9.27-9.84,9.27-15,0-2.23-.88-4.03-2.63-5.4ZM401.17,709.87c-4.65,3.63-8.76,5.44-12.33,5.44-1.78,0-3.38-.22-4.78-.67-2.1-.7-3.15-1.62-3.15-2.77,0-1.46,2.51-4.81,7.55-10.03,2.35-2.42,4.25-4.33,5.68-5.73,1.44-1.41,2.47-2.23,3.11-2.49,2.35-1.21,4.9-1.81,7.64-1.81,3,0,4.49,1.21,4.49,3.63,0,5.28-2.74,10.09-8.21,14.43Z"/>
          <path class="cls-1" d="M446.65,692.19c-2.36,1.21-4.39,1.81-6.11,1.81-.51,0-.83-.09-.96-.28.13-.64.24-1.25.34-1.82.09-.57.14-1.11.14-1.62,0-3.44-1.63-5.16-4.88-5.16-3.44,0-7.96,3.47-13.56,10.41-5.55,6.88-8.32,12.23-8.32,16.06,0,1.4.45,2.85,1.34,4.34.89,1.5,2.13,2.25,3.73,2.25h1.53c3.56,0,7.86-3.09,12.9-9.27,4.9-5.92,7-9.94,6.3-12.04,4.97-2.04,7.49-3.6,7.55-4.68ZM430.6,707.76c-4.27,5.04-7.77,7.55-10.51,7.55-1.47,0-2.23-.99-2.3-2.96-.13-2.74,1.82-6.66,5.83-11.75,4.08-5.23,7.2-7.84,9.37-7.84,1.53,2.36,2.8,3.82,3.82,4.4,0,2.16-2.07,5.7-6.21,10.6Z"/>
          <path class="cls-1" d="M482.01,701.84c-.13,0-.29.1-.48.29l-.48.48-2.29,2.68c-1.4,1.59-3.14,3.23-5.21,4.92-2.07,1.69-4.2,3.11-6.4,4.25-2.2,1.15-4.25,1.72-6.16,1.72-2.81,0-4.2-1.43-4.2-4.3,0-3.18,2.04-7.39,6.11-12.61l6.59-8.31c.19-.51,0-1.08-.57-1.72-.57-.64-1.24-.96-2.01-.96-.25,0-.45.03-.57.1l-2.48,1.53c-1.4.83-2.68,1.24-3.82,1.24-1.97,0-2.96-.67-2.96-2.01,0-.06.76-1.08,2.29-3.06,1.59-1.97,2.39-3.57,2.39-4.78,0-1.34-.73-2.01-2.2-2.01-2.23,0-4.08,2.77-5.54,8.31-1.34,2.61-3.03,5.29-5.06,8.03-2.04,2.74-4.27,5.51-6.69,8.31-.57.64-.95,1.15-1.15,1.53-.32.51-.48.92-.48,1.24,0,.26.16.38.48.38.83,0,3.12-2.45,6.88-7.36l7.07-9.17c1.02,2.17,2.29,3.25,3.82,3.25h.57c.19,0,.41-.03.67-.1-.76,1.02-1.5,2.12-2.2,3.3-.7,1.18-1.37,2.5-2.01,3.97-1.66,3.7-2.49,6.88-2.49,9.56,0,2.42.51,4.35,1.53,5.78,1.02,1.43,2.9,2.15,5.64,2.15,1.85,0,3.9-.54,6.16-1.62,2.26-1.08,4.46-2.47,6.59-4.16,2.13-1.69,3.93-3.36,5.4-5.02l3.06-3.44c.32-.38.54-.73.67-1.05.13-.32.19-.54.19-.67,0-.44-.23-.67-.67-.67Z"/>
          <path class="cls-1" d="M554.72,685.12c.76,0,1.56-.3,2.39-.91s1.24-1.29,1.24-2.05c0-.89-.45-1.64-1.34-2.25-.89-.61-1.78-.91-2.68-.91-2.42,0-3.63.89-3.63,2.67,0,.89.4,1.69,1.19,2.39.8.7,1.74,1.05,2.82,1.05Z"/>
          <path class="cls-1" d="M638.72,681.77c.38-.13,1.03-.4,1.96-.81.92-.41,2.12-.97,3.58-1.67,1.66-.83,2.93-1.51,3.82-2.05.89-.54,1.53-.94,1.91-1.19.32-.25.61-.53.86-.81.25-.29.38-.65.38-1.1s-.24-.88-.72-1.29c-.48-.41-.88-.62-1.19-.62-.38,0-.92.29-1.62.86l-9.27,7.45c-.25.19-.38.42-.38.67,0,.51.22.7.67.57Z"/>
          <path class="cls-1" d="M650.28,692.19c-2.36,1.21-4.4,1.81-6.12,1.81-.51,0-.82-.09-.95-.28.13-.64.24-1.25.33-1.82.1-.57.15-1.11.15-1.62,0-3.44-1.63-5.16-4.88-5.16-3.44,0-7.96,3.47-13.57,10.41-2.14,2.66-3.85,5.08-5.17,7.28-1.91,2.08-3.83,3.95-5.77,5.57-2,1.69-3.84,3.05-5.49,4.07-.64.38-1.67.9-3.11,1.57-1.43.67-2.95,1.26-4.54,1.77-1.59.51-2.96.76-4.11.76-1.72,0-2.96-.33-3.72-1-.77-.67-1.15-1.51-1.15-2.53,0-1.15.43-2.76,1.29-4.83.86-2.07,1.93-4.25,3.2-6.54,1.27-2.3,2.55-4.37,3.82-6.21,1.28-1.85,2.36-3.16,3.25-3.92.2-.06,1.42-.26,3.68-.57,2.26-.32,5.53-.77,9.8-1.34,7.51-.96,11.27-1.72,11.27-2.3,0-.12-.09-.22-.28-.28-.13,0-.77.01-1.91.04-1.15.04-2.51.07-4.07.1-1.56.03-3.05.05-4.49.05h-7.31c-1.08,0-1.91-.03-2.48-.1,3.06-3.44,4.59-5.57,4.59-6.4,0-.57-.52-1.15-1.53-1.72-.83-.45-1.47-.67-1.91-.67h-.29c-1.02.38-2.39,1.66-4.11,3.82-1.21,1.66-2.39,3.22-3.54,4.69h-5.54c-.26.06-.54.09-.86.09-.45.07-.94.29-1.48.67-.54.38-.81.92-.81,1.63,0,1.46.95,2.19,2.86,2.19.64,0,1.37-.09,2.2-.28-1.34,2.54-2.67,5.12-4.01,7.74-.7,1.37-1.34,2.69-1.92,3.97-2.63,3.03-5.12,5.31-7.44,6.73-2.62,1.59-5.26,2.42-7.94,2.48.32-1.08.74-2.83,1.25-5.25.5-2.42,1.11-5.51,1.81-9.27.96-5.1,2.01-8.63,3.16-10.61.06-.06.23-.3.52-.72.29-.41.75-1,1.39-1.76.82-1.02,1.24-1.91,1.24-2.68,0-1.53-1.02-2.29-3.06-2.29-.45,0-1.16.41-2.15,1.24-.99.83-2.31,2.04-3.96,3.63l-12.04,11.28c-3.89,3.57-7.46,7.32-10.71,11.27-.09.1-.14.2-.2.29-.35.35-.71.69-1.09,1.05-1.62,1.53-3.33,2.96-5.11,4.3-1.79,1.34-3.49,2.44-5.11,3.3-1.63.86-2.95,1.29-3.97,1.29-1.59,0-2.39-1.02-2.39-3.06,0-2.61,2.39-7.01,7.17-13.19l7.26-9.36c0-.57-.41-1.1-1.24-1.58-.83-.48-1.53-.71-2.1-.71-2.3.06-5.23,2.99-8.79,8.79-.9,1.4-1.8,2.99-2.73,4.77-.17.34-.31.68-.48,1.01-.46.53-1,1.13-1.62,1.81-1.24,1.37-2.63,2.76-4.16,4.16-1.52,1.4-3.04,2.58-4.53,3.54-1.5.95-2.82,1.46-3.97,1.52-1.08,0-1.62-.73-1.62-2.19,0-2.81,2.1-7.01,6.3-12.62,2.36-3.18,4.11-5.54,5.26-7.07,1.14-1.53,1.72-2.51,1.72-2.96,0-1.66-.89-2.48-2.68-2.48-.06,0-.19.01-.38.04-.19.04-.35.05-.48.05-1.02.13-2.45.69-4.3,1.67-1.85.99-3.92,2.27-6.21,3.82-2.29,1.57-4.65,3.21-7.07,4.93-2.42,1.72-4.68,3.34-6.79,4.87.45-1.27,1.61-3.3,3.49-6.07,1.88-2.77,4.51-6.29,7.89-10.56,6.43-8.34,9.74-13.18,9.93-14.52-.25-1.34-.79-2.01-1.62-2.01-.06,0-.13.02-.19.05-.07.03-.16.05-.29.05-3.12,1.02-8.47,7.61-16.05,19.78-1.79,2.8-3.84,6.23-6.16,10.27-2.33,4.05-4.96,8.68-7.89,13.9-.76,1.4-1.15,2.42-1.15,3.06,0,1.09.93,1.63,2.78,1.63.32,0,.83-.45,1.52-1.34.71-.89,1.5-1.99,2.39-3.3.9-1.3,1.76-2.53,2.58-3.68,6.63-7.96,14.02-13.98,22.17-18.06-.95,1.53-1.91,3.06-2.86,4.59-.96,1.53-1.88,3.06-2.77,4.59-2.3,4.01-3.44,7.26-3.44,9.74,0,4.4,1.87,6.6,5.63,6.6.77,0,1.93-.53,3.49-1.58,1.56-1.05,3.22-2.36,4.97-3.92,1.55-1.38,2.98-2.75,4.34-4.1-.02.03-.03.06-.04.09-.61,1.75-.91,3.29-.91,4.63,0,2.36.47,4,1.39,4.92.92.93,2.08,1.39,3.49,1.39,2.54,0,4.9-.62,7.07-1.87,2.16-1.24,4.17-2.75,6.02-4.53,1.58-1.54,3.03-2.96,4.38-4.3.42-.29.92-.72,1.54-1.34.89,3.5,2.06,6.24,3.49,8.22,1.43,1.97,3.65,2.96,6.64,2.96,1.27,0,2.49-.13,3.63-.38,1.15-.26,2.13-.67,2.96-1.25l3.06-2c2.61-.58,4.88-1.29,6.79-2.15,1.91-.86,3.72-2.04,5.44-3.54.56-.48,1.13-1.03,1.72-1.6-.62,1.78-.95,3.29-.95,4.52,0,2.54.59,4.31,1.76,5.3,1.18.99,2.79,1.48,4.83,1.48s4.25-.35,6.64-1.05c2.39-.7,4.89-1.85,7.5-3.44,2.3-1.4,4.38-2.95,6.26-4.64.67-.6,1.3-1.23,1.93-1.85-.53,1.47-.83,2.82-.83,4.01,0,1.4.45,2.85,1.34,4.34.89,1.5,2.13,2.25,3.72,2.25h1.53c3.57,0,7.87-3.09,12.9-9.27,4.91-5.92,7.01-9.94,6.31-12.04,4.97-2.04,7.49-3.6,7.55-4.68ZM574.98,702.51c-.64,2.61-1.29,4.79-1.96,6.54-.67,1.76-1.35,2.82-2.05,3.2-.96.71-2.17,1.06-3.63,1.06-2.17,0-4-.77-5.5-2.3-1.49-1.53-2.12-3.57-1.86-6.11.06-.51.41-1.29,1.05-2.35.64-1.05,2.04-2.69,4.21-4.92,2.16-2.23,4.36-4.36,6.59-6.4,2.23-2.04,4.07-3.6,5.54-4.68l-.38,3.25c-.26,1.97-.53,4.03-.81,6.16-.29,2.14-.69,4.32-1.2,6.55ZM634.23,707.76c-4.27,5.04-7.78,7.55-10.52,7.55-1.46,0-2.23-.99-2.29-2.96-.13-2.74,1.82-6.66,5.83-11.75,4.08-5.23,7.2-7.84,9.37-7.84,1.52,2.36,2.8,3.82,3.82,4.4,0,2.16-2.07,5.7-6.21,10.6Z"/>
          <path class="cls-1" d="M703.5,685.12c.76,0,1.56-.3,2.39-.91.83-.61,1.24-1.29,1.24-2.05,0-.89-.45-1.64-1.34-2.25-.89-.61-1.78-.91-2.68-.91-2.42,0-3.63.89-3.63,2.67,0,.89.4,1.69,1.19,2.39.8.7,1.74,1.05,2.82,1.05Z"/>
          <path class="cls-1" d="M782.05,700.79c-.26,0-.51.13-.77.38-.25.25-.44.45-.57.57-2.99,3.63-5.8,6.25-8.41,7.84-2.61,1.59-5.25,2.42-7.93,2.48.32-1.08.73-2.83,1.24-5.25.51-2.42,1.12-5.51,1.82-9.27.95-5.1,2-8.63,3.15-10.61.07-.06.24-.3.53-.72.28-.41.75-1,1.38-1.76.83-1.02,1.24-1.91,1.24-2.68,0-1.53-1.01-2.29-3.05-2.29-.45,0-1.16.41-2.15,1.24-.99.83-2.31,2.04-3.97,3.63l-12.04,11.28c-1.12,1.03-2.2,2.07-3.27,3.13-.06-.02-.09-.07-.17-.07-.19,0-.38.12-.57.38-.9,1.12-1.76,2.17-2.6,3.17-1.41,1.53-2.78,3.08-4.09,4.66-.02.03-.03.05-.05.08-5.22,5.67-9.03,8.52-11.42,8.52-1.08,0-1.78-.73-2.1-2.19-.38-2.17,1.5-6.28,5.64-12.33,4.14-6.18,6.18-9.33,6.11-9.46-.06-.45-.38-.96-.95-1.53s-1.24-.86-2.01-.86c-.25,0-.48.05-.67.14-.19.1-.41.15-.67.15-.12,0-.3-.39-.52-1.15s-.56-1.37-1-1.82c-.83-.7-1.98-1.05-3.44-1.05-5.42,0-11.5,3.38-18.26,10.13-2.49,2.47-4.47,4.81-5.96,7.03-.42.34-.87.8-1.39,1.48-1.02,1.27-2.34,2.67-3.97,4.2-1.62,1.53-3.33,2.96-5.11,4.3-1.78,1.34-3.49,2.44-5.11,3.3-1.63.86-2.95,1.29-3.97,1.29-1.59,0-2.39-1.02-2.39-3.06,0-2.61,2.39-7.01,7.17-13.19l7.26-9.36c0-.57-.41-1.1-1.24-1.58-.83-.48-1.53-.71-2.1-.71-2.3.06-5.23,2.99-8.79,8.79-.9,1.4-1.8,2.99-2.73,4.77-.16.32-.29.64-.45.95l-1.31,1.54c-1.41,1.59-3.14,3.23-5.21,4.92-2.07,1.69-4.21,3.11-6.41,4.25-2.19,1.15-4.25,1.72-6.16,1.72-2.8,0-4.2-1.43-4.2-4.3,0-3.18,2.04-7.39,6.11-12.61l6.6-8.31c.19-.51,0-1.09-.58-1.72-.57-.64-1.24-.96-2-.96-.26,0-.45.03-.58.1l-2.48,1.52c-1.4.83-2.68,1.25-3.82,1.25-1.98,0-2.97-.67-2.97-2.01,0-.06.77-1.08,2.3-3.06,1.59-1.97,2.39-3.57,2.39-4.78,0-1.33-.74-2-2.2-2-2.23,0-4.08,2.77-5.54,8.31-1.34,2.61-3.03,5.29-5.07,8.03-2.04,2.74-4.27,5.51-6.69,8.31-.57.64-.95,1.15-1.14,1.53-.32.51-.48.92-.48,1.24,0,.26.16.38.48.38.82,0,3.12-2.45,6.88-7.35l7.07-9.18c1.01,2.17,2.29,3.25,3.82,3.25h.57c.19,0,.42-.03.67-.09-.76,1.02-1.5,2.12-2.2,3.29-.7,1.18-1.37,2.5-2,3.97-1.66,3.69-2.49,6.88-2.49,9.55,0,2.43.51,4.35,1.53,5.78,1.02,1.44,2.9,2.16,5.64,2.16,1.85,0,3.9-.54,6.16-1.63,2.26-1.08,4.46-2.47,6.6-4.16,1.86-1.47,3.45-2.93,4.81-4.38-.56,1.67-.85,3.15-.85,4.43,0,2.36.47,4,1.39,4.92.92.93,2.08,1.39,3.49,1.39,2.54,0,4.9-.62,7.07-1.87,2.16-1.24,4.17-2.75,6.02-4.53,1.8-1.74,3.44-3.36,4.94-4.86-.62,1.85-.86,3.6-.64,5.24.19,1.46,1.05,2.74,2.58,3.82,1.52,1.09,3.05,1.63,4.58,1.63.89,0,2.06-.39,3.49-1.15,1.43-.77,3.04-2.04,4.83-3.82l5.92-5.74c-.25,1.09-.38,2.17-.38,3.25,0,3.12,1.4,5.23,4.2,6.31.51.19,1.05.29,1.63.29,3.47,0,8.16-3.52,14.06-10.53l.08-.08c.89,3.5,2.05,6.24,3.49,8.22,1.43,1.97,3.64,2.96,6.64,2.96,1.27,0,2.48-.13,3.63-.38,1.14-.26,2.13-.67,2.96-1.25l3.06-2c2.61-.58,4.87-1.29,6.78-2.15,1.91-.86,3.73-2.04,5.45-3.54,1.72-1.49,3.57-3.42,5.54-5.78.19-.25.38-.54.57-.86.2-.32.29-.64.29-.95s-.19-.48-.57-.48ZM724.62,704.23c-6.37,8.09-11.4,12.13-15.1,12.13-1.21,0-1.97-.76-2.29-2.29-.7-4.14,2.39-9.4,9.27-15.77,6.62-6.24,11.88-9.36,15.76-9.36,1.15,0,1.98.44,2.49,1.34l-10.13,13.95ZM763.13,702.51c-.64,2.61-1.29,4.79-1.96,6.54-.67,1.76-1.35,2.82-2.06,3.2-.95.71-2.16,1.06-3.63,1.06-2.16,0-3.99-.77-5.49-2.3-1.5-1.53-2.12-3.57-1.86-6.11.06-.51.41-1.29,1.05-2.35.63-1.05,2.04-2.69,4.2-4.92,2.17-2.23,4.37-4.36,6.59-6.4,2.23-2.04,4.08-3.6,5.55-4.68l-.39,3.25c-.25,1.97-.52,4.03-.81,6.16-.28,2.14-.68,4.32-1.19,6.55Z"/>
          <path class="cls-1" d="M170.97,717.32c-.83.19-2.58.89-5.25,2.1-3.06,1.34-4.97,2.01-5.73,2.01-1.21,0-1.82-.92-1.82-2.77,0-4.14,2.64-10.86,7.93-20.16,5.8-10.06,12.68-19.17,20.64-27.33,3.38-3.44,4.9-5.7,4.59-6.79-.45-1.66-.88-3.01-1.29-4.06-.42-1.05-1.07-1.58-1.96-1.58-.96,0-2.04.51-3.25,1.53l-15.29,12.61c-3.89,3.31-7.33,6.42-10.32,9.32-3,2.9-5.58,5.56-7.74,7.98-1.78,2.04-3.17,3.65-4.16,4.83-.99,1.18-1.61,1.93-1.86,2.25.13-.19.38-.99.76-2.39s1.11-3.09,2.2-5.07c3.44-6.43,6.31-12.07,8.6-16.91,1.72-3.63,2.58-6.5,2.58-8.6,0-2.42-1.15-3.63-3.44-3.63-1.66,0-3.67.64-6.02,1.91-2.36,1.28-4.46,2.8-6.31,4.59-4.27,4.2-7.96,7.96-11.08,11.28-3.12,3.31-5.61,6.18-7.45,8.6l-7.36,9.36c4.01-6.24,6.59-10.54,7.74-12.9,3.63-7.58,5.45-13.6,5.45-18.06,0-3.57-1.13-6.07-3.39-7.5-2.26-1.43-5.56-2.15-9.89-2.15-3,0-6.28.37-9.84,1.1-2.61.54-6.66.98-7.65,2.12-.99,1.14-2.1,4.62,4.5,2.59,4.28-1.31,5.99-3.5,11.46-3.81,3.37-.19,5.89.67,7.55,2.01,1.66,1.34,2.48,3.6,2.48,6.78,0,4.59-2.14,10.74-6.4,18.44-1.97,3.57-6.25,10.22-12.8,19.97-5.03,7.52-8,12.71-8.89,15.58-.38,1.21.73,1.82,3.34,1.82,1.28,0,2.42-.26,3.44-.76,1.15-.89,1.72-1.37,1.72-1.43-.57-.32-.86-.67-.86-1.05,0-1.02.77-2.71,2.29-5.06,1.91-2.99,4.25-6.35,7.02-10.08,2.77-3.73,6-7.79,9.7-12.18,8.79-10.57,16.72-18.83,23.79-24.75,2.04-1.72,3.54-2.58,4.49-2.58.7,0,1.05.51,1.05,1.53,0,1.21-.54,3.15-1.62,5.83-3,7.07-7.93,16.6-14.81,28.57-2.36,3.95-4.39,7.34-6.11,10.18-1.72,2.83-3.12,5.11-4.21,6.83-.19.26-.29.51-.29.77,0,.76.54,1.15,1.62,1.15,2.36,0,4.36-1.5,6.02-4.49,1.59-2.8,4.22-6.35,7.88-10.65,3.66-4.3,8.39-9.28,14.19-14.96,4.46-4.33,8.63-8.28,12.52-11.85,3.88-3.57,7.49-6.72,10.8-9.46-7.84,10.89-13.63,19.56-17.39,25.99-5.86,10.26-8.79,18.12-8.79,23.6,0,2.36.57,4.36,1.72,6.02.38.57,1.15.86,2.29.86,2.23,0,5-.86,8.31-2.58,3.38-1.72,5.06-3.06,5.06-4.01,0-.19-.16-.35-.48-.48Z"/>
        </g>
      </g>
      <g>
        <path class="cls-1" d="M550.03,59.58c-3.27-41.18-38.31-66-91.2-58.13-33.18,4.94-80.26,21.66-104.77,46.57-18.58,18.88-23.62,28.59-23.62,48.11,0,5.23-.12,8.07-.12,16.96s1.95,18.76,10,28.94c-1.58-46.78,54.05-78.16,119.7-92.08,14.19-3.01,32.21,1,35.19,17.18,2.56,13.92-4.11,27.27-27.97,35.51-45.71,15.78-101.33,18.41-129.7,62.09-5.06,7.79-7.1,14.27-7.1,26.76,0,5.23-.12,5.78-.12,14.67,0,15.86,3.88,24.3,10.03,33.07-.25-7.48.84-18.9,3.92-25.62,18.38-40.14,90.74-51.48,122.59-58.59,65.73-14.68,87.11-45.84,83.17-95.44Z"/>
        <g class="cls-2">
          <path class="cls-1" d="M388.44,126c-13.5-5.87-25.78-13.28-34.6-22.81-9.02,11.44-13.99,24.4-13.51,38.82,2.47,3.38,5.13,6.46,7.92,9.34,11.32-11.63,25.16-19.43,40.19-25.35Z"/>
          <path class="cls-1" d="M481.11,151.36c-4.51,1.31-9.23,2.54-14.25,3.66-18.6,4.15-51.01,9.76-78.42,21.69,25.1,9.9,53.47,14.61,78.8,23.36,23.86,8.24,30.53,21.59,27.97,35.51-2.98,16.18-20.99,20.19-35.19,17.18-45.39-9.62-85.98-27.6-106.19-53.24-3.94,4.26-7.21,8.93-9.57,14.09-3.06,6.69-4.16,18.01-3.92,25.49,3.42,4.69,7.9,9.69,13.71,15.59,24.51,24.91,71.59,41.63,104.77,46.57,52.89,7.87,87.93-16.95,91.2-58.13,3.64-45.82-14.36-75.88-68.92-91.78Z"/>
        </g>
      </g>
    </g>
  </g>
</svg>